<?xml version="1.0" encoding="UTF-8"?>
<svg id="Layer_1" data-name="Layer 1" xmlns="http://www.w3.org/2000/svg" viewBox="0 0 800 450">
  <g>
    <path d="m363.5,253.29h-13.56s0-45.66,0-45.66l-17.49,31.46h-9.11l-17.8-31.77v45.99h-13.56v-71.86h13.56l22.36,40.88,22.05-40.88h13.56v71.85Z"/>
    <path d="m372.51,229.05v-6.42c0-8,2.17-14.09,6.52-18.27,4.35-4.17,10.35-6.26,18.01-6.26s13.54,2.1,17.85,6.31,6.47,10.28,6.47,18.22v6.42c0,8.07-2.16,14.21-6.47,18.42-4.31,4.21-10.26,6.31-17.85,6.31s-13.66-2.1-18.01-6.31c-4.35-4.21-6.52-10.35-6.52-18.42Zm36.12-6.21c0-4.55-1-7.92-3-10.09-2-2.17-4.86-3.26-8.59-3.26-7.87,0-11.8,4.45-11.8,13.35v6.11c0,8.9,3.93,13.35,11.8,13.35s11.59-4.45,11.59-13.35v-6.11Z"/>
    <path d="m445.89,235.47c0,2.35.5,4.02,1.5,5.02,1,1,2.67,1.5,5.02,1.5h4.55v10.87h-6.93c-5.45,0-9.63-1.43-12.52-4.29-2.9-2.86-4.35-6.95-4.35-12.27v-28.25h-9.42v-9h9.42v-10.56l12.73-4.45v15.01h12.21v9h-12.21v27.43Z"/>
    <path d="m479.63,199.04v6.11c4-4.69,9.11-7.04,15.32-7.04s11.52,2.07,15.32,6.21,5.69,10.11,5.69,17.91v6.73c0,5.18-.91,9.64-2.74,13.4-1.83,3.76-4.33,6.61-7.5,8.54-3.17,1.93-6.8,2.9-10.87,2.9-6.42,0-11.38-2.14-14.9-6.42v21.63h-12.83v-69.97h12.52Zm23.49,29.39v-5.59c0-8.9-3.83-13.35-11.49-13.35-3.66,0-6.52,1.16-8.59,3.47-2.07,2.31-3.1,5.54-3.1,9.68v6.83c0,3.93,1.07,7.06,3.21,9.37,2.14,2.31,5.04,3.47,8.69,3.47s6.45-1.16,8.38-3.47c1.93-2.31,2.9-5.78,2.9-10.4Z"/>
    <path d="m537.48,181.44v23.29c1.86-2.07,4.14-3.64,6.83-4.71,2.69-1.07,5.59-1.6,8.69-1.6,6.21,0,11.04,1.83,14.49,5.49s5.17,8.8,5.17,15.42v33.53h-12.83v-30.95c0-8.07-3.55-12.11-10.66-12.11-3.66,0-6.52,1.05-8.59,3.16-2.07,2.1-3.11,5.26-3.11,9.47v30.43h-12.83v-71.42h12.83Z"/>
    <path d="m606.52,257.52c-1.52,3.93-3.76,6.8-6.73,8.59-2.97,1.79-6.83,2.69-11.59,2.69h-4.97v-11.49h5.59c2.48,0,4.29-.33,5.43-.98,1.14-.66,2.05-1.88,2.74-3.67l.31-.93-21.94-52.68h13.87l13.97,36.02,12.83-36.02h13.35l-22.87,58.48Z"/>
    <path d="m631.56,236.3v-.31h12.01v.21c0,2.14,1,3.83,3,5.07s4.97,1.86,8.9,1.86c3.66,0,6.43-.52,8.33-1.55s2.85-2.55,2.85-4.55c0-1.66-.67-2.93-2.02-3.83-1.34-.9-3.54-1.52-6.57-1.86l-7.97-.93c-6.07-.76-10.54-2.36-13.4-4.81-2.86-2.45-4.3-5.95-4.3-10.51,0-5.31,2-9.42,6-12.32,4-2.9,9.49-4.35,16.46-4.35s12.8,1.45,16.87,4.35c4.07,2.9,6.11,6.9,6.11,12.01v.41h-11.9v-.31c0-2.07-.93-3.66-2.79-4.76-1.86-1.1-4.66-1.66-8.38-1.66-3.52,0-6.12.5-7.81,1.5-1.69,1-2.54,2.43-2.54,4.3,0,1.52.59,2.73,1.76,3.62,1.17.9,3.14,1.48,5.9,1.76l8.59,1.04c6.21.69,10.8,2.33,13.77,4.92,2.97,2.59,4.45,6.12,4.45,10.61,0,5.59-2.16,9.87-6.47,12.83-4.31,2.97-10.19,4.45-17.65,4.45s-13.01-1.5-17.08-4.5c-4.07-3-6.11-7.23-6.11-12.68Z"/>
  </g>
  <g>
    <polygon points="189.56 197.29 160.73 197.29 154.44 205.29 195.82 205.29 189.56 197.29"/>
    <path d="m178.19,182.76c-1.53-1.96-4.5-1.96-6.04,0l-5.14,6.54h16.28l-5.11-6.53Z"/>
    <path d="m273.97,247.09l-50.33-64.33c-1.53-1.96-4.5-1.96-6.04,0l-19.8,25.06-4.34,5.47h-45.31l-6.29,8h45.44l-6.29,8h-45.43l-6.29,8h45.44l-6.29,8h-45.44l-1.41,1.79c-1.98,2.52-.19,6.21,3.01,6.21h146.35c3.2,0,4.99-3.68,3.02-6.2Z"/>
  </g>
</svg>